/* XPM */
static char *cb7ze_3vcjh_0[] = {
/* columns rows colors chars-per-pixel */
"32 32 102 2 ",
"   c None",
".  c #F8D913",
"X  c #F8D917",
"o  c #F8D918",
"O  c #F8DA18",
"+  c #F8DA19",
"@  c #F8DA1A",
"#  c #F8DA1B",
"$  c #F8DA1C",
"%  c #F8DA1D",
"&  c #F8DA1E",
"*  c #F8DB1E",
"=  c #F8DB1F",
"-  c #F8DB20",
";  c #F8DB21",
":  c #F8DB22",
">  c #F8DB23",
",  c #F8DC26",
"<  c #F8DC27",
"1  c #F8DC28",
"2  c #F8DC29",
"3  c #F9DD2F",
"4  c #F9DE32",
"5  c #F9DE36",
"6  c #F9DF37",
"7  c #F9DF3B",
"8  c #F9E042",
"9  c #F9E146",
"0  c #F9E148",
"q  c #F9E149",
"w  c #F9E24A",
"e  c #F9E24B",
"r  c #FAE24D",
"t  c #FAE24E",
"y  c #FAE353",
"u  c #FAE355",
"i  c #FAE456",
"p  c #FAE457",
"a  c #FAE458",
"s  c #FAE459",
"d  c #FAE55D",
"f  c #FAE55F",
"g  c #FAE662",
"h  c #FAE663",
"j  c #FAE664",
"k  c #FAE665",
"l  c #FAE666",
"z  c #FAE768",
"x  c #FAE769",
"c  c #FAE76C",
"v  c #FBE76D",
"b  c #FBE870",
"n  c #FBE871",
"m  c #FBE874",
"M  c #FBE978",
"N  c #FBEA7B",
"B  c #FBEB81",
"V  c #FBEB82",
"C  c #FBEB83",
"Z  c #FBEB84",
"A  c #FBEB85",
"S  c #FBEC88",
"D  c #FCEE96",
"F  c #FCEE99",
"G  c #FCEF9D",
"H  c #FCEF9E",
"J  c #FCF0A0",
"K  c #FCF1A8",
"L  c #FDF2AE",
"P  c #FDF2B1",
"I  c #FDF2B2",
"U  c #FDF3B5",
"Y  c #FDF3B6",
"T  c #FDF3B8",
"R  c #FDF4BE",
"E  c #FDF5BF",
"W  c #FDF5C2",
"Q  c #FDF6C9",
"!  c #FDF7CB",
"~  c #FDF7CE",
"^  c #FEF7CF",
"/  c #FEF8D3",
"(  c #FEF8D4",
")  c #FEF9D9",
"_  c #FEF9DA",
"`  c #FEFAE0",
"'  c #FEFAE1",
"]  c #FEFCEB",
"[  c #FEFCEC",
"{  c #FEFCEE",
"}  c #FFFDF0",
"|  c #FFFDF1",
" . c #FFFDF2",
".. c #FFFDF3",
"X. c #FFFDF5",
"o. c #FFFEF7",
"O. c #FFFEF8",
"+. c #FFFEF9",
"@. c #FFFEFA",
"#. c #FFFFFD",
"$. c #FFFFFE",
"%. c #FFFFFF",
/* pixels */
"                              # #                               ",
"                      # # # # # # # # # #                       ",
"                # # # # # # # # # # # # # # # #                 ",
"              # # # # # # # # # # # # # # # # # #               ",
"            # # # # # # # # # # # # # # # # # # # #             ",
"          # # # # # # # # # # # # # # # # # # # @ # #           ",
"        # # # # # # # # # # # # # # # # # # @ * 4 $ # #         ",
"      # # # # # # # # # # @ O X X X o @ # # $ f a @ # # #       ",
"    # # # # # # # # # # + > w n C N s 3 + # d h & # # # # #     ",
"    # # # # # # # # # + q T } $.%.%.O.( N g j & @ # # # # #     ",
"    # # # # # # # # + 8 ) %.%.%.%.%.%.%.{ m & @ # # # # # #     ",
"  # # # # # # # # # # H %.%.O.I Z G ' X.B & @ # # # # # # # #   ",
"  # # # # # # # # @ , ! %.%.E > X + 9 c - @ # # # # # # # # #   ",
"  # # # # # # # # @ < ~ %.%.^ 7 + o O + # # # # # # # # # # #   ",
"  # # # # # # # # # % K %.%.$._ D i 1 O @ # # # # # # # # # #   ",
"# # # # # # # # # # + e ` %.%.%.%.X.Q v ; @ # # # # # # # # # # ",
"# # # # # # # # # # # @ r Y } %.%.%.%.o.S % # # # # # # # # # # ",
"  # # # # # # # # # # # O : e S ! @.%.%.] 0 O # # # # # # # #   ",
"  # # # # # # # # # # # O + O O 2 D $.%.%.b X # # # # # # # #   ",
"  # # # # # # # # # @ - l 7 X O . u o.%.%.b X # # # # # # # #   ",
"  # # # # # # # # @ * V X./ M w y Y %.%.| t O # # # # # # # #   ",
"    # # # # # # @ = N ..%.%.#. .X.%.%.%.L > @ # # # # # # #     ",
"    # # # # # @ - z k F [ %.%.%.%.%.+.U 6 + # # # # # # # #     ",
"    # # # # @ ; x i + % 0 A P W R J j < + # # # # # # # # #     ",
"      # # # % h p @ # # O O % : ; @ o @ # # # # # # # # #       ",
"        # # * 5 $ # # # # # # # # # # # # # # # # # # #         ",
"          # # + # # # # # # # # # # # # # # # # # # #           ",
"            # # # # # # # # # # # # # # # # # # # #             ",
"              # # # # # # # # # # # # # # # # # #               ",
"                # # # # # # # # # # # # # # # #                 ",
"                      # # # # # # # # # #                       ",
"                              # #                               "
};
