/* XPM */
static char *cbib6_9901l_0[] = {
/* columns rows colors chars-per-pixel */
"64 64 167 2 ",
"   c None",
".  c #F8D916",
"X  c #F8D917",
"o  c #F7D91B",
"O  c #F7DA1B",
"+  c #F8D918",
"@  c #F8DA18",
"#  c #F8DA19",
"$  c #F8D91B",
"%  c #F8DA1A",
"&  c #F8DA1B",
"*  c #F8DA1C",
"=  c #F8DA1D",
"-  c #F8DA1E",
";  c #F8DB1F",
":  c #F8DB20",
">  c #F8DB21",
",  c #F8DB22",
"<  c #F8DB23",
"1  c #F8DB24",
"2  c #F8DC25",
"3  c #F8DC26",
"4  c #F8DC29",
"5  c #F8DD2B",
"6  c #F9DD2C",
"7  c #F9DD2D",
"8  c #F9DD2E",
"9  c #F9DD2F",
"0  c #F9DD30",
"q  c #F9DE31",
"w  c #F9DE36",
"e  c #F9DF37",
"r  c #F9DF39",
"t  c #F9DF3B",
"y  c #F9DF3C",
"u  c #F9DF3D",
"i  c #F9E03D",
"p  c #F9E03F",
"a  c #F9E040",
"s  c #F9E041",
"d  c #F9E042",
"f  c #F9E144",
"g  c #F9E147",
"h  c #F9E148",
"j  c #F9E149",
"k  c #F9E249",
"l  c #F9E24A",
"z  c #F9E24B",
"x  c #FAE24B",
"c  c #F9E24C",
"v  c #FAE24C",
"b  c #FAE24F",
"n  c #FAE352",
"m  c #FAE353",
"M  c #FAE354",
"N  c #FAE456",
"B  c #FAE458",
"V  c #FAE459",
"C  c #FAE45A",
"Z  c #FAE45B",
"A  c #FAE55C",
"S  c #FAE55E",
"D  c #FAE561",
"F  c #FAE662",
"G  c #FAE664",
"H  c #FAE666",
"J  c #FAE768",
"K  c #FAE76A",
"L  c #FAE76B",
"P  c #FAE76C",
"I  c #FAE76D",
"U  c #FBE76D",
"Y  c #FBE86F",
"T  c #FBE870",
"R  c #FBE871",
"E  c #FBE872",
"W  c #FBE873",
"Q  c #FBE975",
"!  c #FBE977",
"~  c #FBE978",
"^  c #FBE979",
"/  c #FBEA7B",
"(  c #FBEA7C",
")  c #FBEA7D",
"_  c #FBEA7E",
"`  c #FBEA80",
"'  c #FBEB81",
"]  c #FBEB82",
"[  c #FBEB83",
"{  c #FBEB84",
"}  c #FBEB86",
"|  c #FBEB87",
" . c #FBEC89",
".. c #FBEC8A",
"X. c #FCEC8B",
"o. c #FCED8E",
"O. c #FCED8F",
"+. c #FCED90",
"@. c #FCEE95",
"#. c #FCEE96",
"$. c #FCEE97",
"%. c #FCEF9A",
"&. c #FCEF9C",
"*. c #FCEF9D",
"=. c #FCEF9E",
"-. c #FCF0A0",
";. c #FCF0A3",
":. c #FCF0A4",
">. c #FCF0A5",
",. c #FCF1A9",
"<. c #FCF1AA",
"1. c #FCF2AE",
"2. c #FDF2AF",
"3. c #FDF2B1",
"4. c #FDF3B2",
"5. c #FDF3B6",
"6. c #FDF3B7",
"7. c #FDF4B9",
"8. c #FDF4BB",
"9. c #FDF4BC",
"0. c #FDF4BD",
"q. c #FDF4BE",
"w. c #FDF5BF",
"e. c #FDF5C0",
"r. c #FDF5C1",
"t. c #FDF5C2",
"y. c #FDF5C4",
"u. c #FDF6C6",
"i. c #FEF7CF",
"p. c #FEF8D1",
"a. c #FEF8D2",
"s. c #FEF8D3",
"d. c #FEF8D4",
"f. c #FEF8D5",
"g. c #FEF8D7",
"h. c #FEF9D7",
"j. c #FEF9D9",
"k. c #FEF9DA",
"l. c #FEF9DB",
"z. c #FEF9DC",
"x. c #FEFADE",
"c. c #FEFAE0",
"v. c #FEFAE1",
"b. c #FEFAE3",
"n. c #FEFBE4",
"m. c #FEFBE6",
"M. c #FEFBE8",
"N. c #FEFCEA",
"B. c #FEFCEB",
"V. c #FEFCEC",
"C. c #FEFCED",
"Z. c #FEFCEE",
"A. c #FFFCEF",
"S. c #FFFDF0",
"D. c #FFFDF1",
"F. c #FFFDF2",
"G. c #FFFDF3",
"H. c #FFFDF5",
"J. c #FFFEF6",
"K. c #FFFEF8",
"L. c #FFFEF9",
"P. c #FFFEFB",
"I. c #FFFEFC",
"U. c #FFFFFC",
"Y. c #FFFFFD",
"T. c #FFFFFE",
"R. c #FFFFFF",
/* pixels */
"                                                                                                                                ",
"                                                    o $ & & $ & & $ & & $ o                                                     ",
"                                            O $ & & & & & & & & & & & & & & & & $ O                                             ",
"                                        $ & & & & & & & & & & & & & & & & & & & & & & $                                         ",
"                                    $ & & & & & & & & & & & & & & & & & & & & & & & & & & $                                     ",
"                                $ & & & & & & & & & & & & & & & & & & & & & & & & & & & & & & $                                 ",
"                            o & & & & & & & & & & & & & & & & & & & & & & & & & & & & & & & & & & o                             ",
"                          $ & & & & & & & & & & & & & & & & & & & & & & & & & & & & & & & & & & & & $                           ",
"                        & & & & & & & & & & & & & & & & & & & & & & & & & & & & & & & & & & & & & & & &                         ",
"                      & & & & & & & & & & & & & & & & & & & & & & & & & & & & & & & & & & & & & & & & & &                       ",
"                    & & & & & & & & & & & & & & & & & & & & & & & & & & & & & & & & & & & & & & & & & & & &                     ",
"                  & & & & & & & & & & & & & & & & & & & & & & & & & & & & & & & & & & & & & & & & & & & & & &                   ",
"                & & & & & & & & & & & & & & & & & & & & & & & & & & & & & & & & & & & & & & & & # % & & & & & &                 ",
"              $ & & & & & & & & & & & & & & & & & & & & & & & & & & & & & & & & & & & & & & & # v y % & & & & & $               ",
"            o & & & & & & & & & & & & & & & & & & & & & & & & & & & & & & & & & & & & & & & @ N q.x # & & & & & & o             ",
"            & & & & & & & & & & & & & & & & & & & & & & & & & % % % % & & & & & & & & & & @ m e.Z # & & & & & & & &             ",
"          $ & & & & & & & & & & & & & & & & & & & & & % @ + * 1 5 8 5 , % X # & & & & & @ b w.S # & & & & & & & & & $           ",
"          & & & & & & & & & & & & & & & & & & & & & @ < l _ ,.y.s.h.p.e.=.I t = @ & & @ c w.F # & & & & & & & & & & &           ",
"        $ & & & & & & & & & & & & & & & & & & & % ; A 7.A.T.R.R.R.R.R.R.R.I.b.;.z * X j 0.H % & & & & & & & & & & & & $         ",
"        & & & & & & & & & & & & & & & & & & & # 4 #.F.R.R.R.R.R.R.R.R.R.R.R.R.R.N.X.M 9.K % & & & & & & & & & & & & & &         ",
"      $ & & & & & & & & & & & & & & & & & & % 3 :.Y.R.R.R.R.R.R.R.R.R.R.R.R.R.R.R.U.z.P % & & & & & & & & & & & & & & & $       ",
"      & & & & & & & & & & & & & & & & & & & % ` P.R.R.R.R.R.R.R.R.R.R.R.R.R.R.R.R.Z.T & & & & & & & & & & & & & & & & & &       ",
"    O & & & & & & & & & & & & & & & & & & # t x.R.R.R.R.R.R.T.Z.j.d.n.L.R.R.R.R.S.W & % & & & & & & & & & & & & & & & & & O     ",
"    $ & & & & & & & & & & & & & & & & & & + ! T.R.R.R.R.R.K.-.j 9 6 r H 7.K.R.D.! * % & & & & & & & & & & & & & & & & & & $     ",
"    & & & & & & & & & & & & & & & & & & & & :.R.R.R.R.R.R.<.> + % % # X 1 ) b.( = % & & & & & & & & & & & & & & & & & & & &     ",
"    & & & & & & & & & & & & & & & & & & & ; 8.R.R.R.R.R.T.U . & & & & & % - d : % & & & & & & & & & & & & & & & & & & & & &     ",
"  o & & & & & & & & & & & & & & & & & & & : 0.R.R.R.R.R.R.' . & & & & & & & # & & & & & & & & & & & & & & & & & & & & & & & o   ",
"  $ & & & & & & & & & & & & & & & & & & & = 1.R.R.R.R.R.R.z.B - + % & & & & & & & & & & & & & & & & & & & & & & & & & & & & $   ",
"  & & & & & & & & & & & & & & & & & & & & @  .R.R.R.R.R.R.R.C.<.D 0 & + % & & & & & & & & & & & & & & & & & & & & & & & & & &   ",
"  & & & & & & & & & & & & & & & & & & & & @ z V.R.R.R.R.R.R.R.R.K.g.*.Z 6 # # & & & & & & & & & & & & & & & & & & & & & & & &   ",
"  $ & & & & & & & & & & & & & & & & & & & & - %.R.R.R.R.R.R.R.R.R.R.R.J.i.| r # % & & & & & & & & & & & & & & & & & & & & & $   ",
"  & & & & & & & & & & & & & & & & & & & & & # 0 7.R.R.R.R.R.R.R.R.R.R.R.R.T.k.R : % & & & & & & & & & & & & & & & & & & & & &   ",
"  & & & & & & & & & & & & & & & & & & & & & & # q -.G.R.R.R.R.R.R.R.R.R.R.R.R.J.O., % & & & & & & & & & & & & & & & & & & & &   ",
"  $ & & & & & & & & & & & & & & & & & & & & & & # : Z 3.V.T.R.R.R.R.R.R.R.R.R.R.K./ % & & & & & & & & & & & & & & & & & & & $   ",
"  & & & & & & & & & & & & & & & & & & & & & & & & % @ : g { t.C.T.R.R.R.R.R.R.R.R.v.a # & & & & & & & & & & & & & & & & & & &   ",
"  & & & & & & & & & & & & & & & & & & & & & & & & & & & @ @ 2 h } p.U.R.R.R.R.R.R.R.] @ & & & & & & & & & & & & & & & & & & &   ",
"  $ & & & & & & & & & & & & & & & & & & & & & & & & & & & & % @ @ 0 +.H.R.R.R.R.R.R.2.= & & & & & & & & & & & & & & & & & & $   ",
"  o & & & & & & & & & & & & & & & & & & & & & & & # & & & & & & & # ; >.R.R.R.R.R.R.r.> & & & & & & & & & & & & & & & & & & o   ",
"    & & & & & & & & & & & & & & & & & & & & & % : w & & & & & & & & X Y T.R.R.R.R.R.e.> & & & & & & & & & & & & & & & & & &     ",
"    & & & & & & & & & & & & & & & & & & & & % = ( f.D & # & & & & & X [ R.R.R.R.R.R.2.= & & & & & & & & & & & & & & & & & &     ",
"    $ & & & & & & & & & & & & & & & & & & % * ~ D.R.V.o.e % X X X + p a.R.R.R.R.R.R...@ & & & & & & & & & & & & & & & & & $     ",
"    O & & & & & & & & & & & & & & & & & % * ! S.R.R.R.Y.l.&.L V D ..g.R.R.R.R.R.R.D.n @ & & & & & & & & & & & & & & & & & O     ",
"      & & & & & & & & & & & & & & & & % * ! S.R.R.R.R.R.R.R.Y.L.P.R.R.R.R.R.R.R.R.4.< % & & & & & & & & & & & & & & & & &       ",
"      $ & & & & & & & & & & & & & & % * ! M.R.R.R.R.R.R.R.R.R.R.R.R.R.R.R.R.R.R.v.k @ & & & & & & & & & & & & & & & & & $       ",
"        & & & & & & & & & & & & & % * ^ 5.G t.Y.R.R.R.R.R.R.R.R.R.R.R.R.R.R.R.m.F % & & & & & & & & & & & & & & & & & &         ",
"        $ & & & & & & & & & & & % * ^ 6.u . 8  .c.T.R.R.R.R.R.R.R.R.R.R.R.P.u.m % & & & & & & & & & & & & & & & & & & $         ",
"          & & & & & & & & & & % * ^ 6.u @ & % % y ' t.N.P.R.R.R.R.R.I.B.r.Q 7 @ & & & & & & & & & & & & & & & & & & &           ",
"          $ & & & & & & & & % * ^ 6.u @ & & & & # @ 2 s G ] @.&.$.} J f 2 @ % & & & & & & & & & & & & & & & & & & & $           ",
"            & & & & & & & & = ^ 6.u @ & & & & & & & % # X + # % # + X @ % & & & & & & & & & & & & & & & & & & & & &             ",
"            o & & & & & & & E 6.u @ & & & & & & & & & & & & & & & & & & & & & & & & & & & & & & & & & & & & & & & o             ",
"              $ & & & & & * C i @ & & & & & & & & & & & & & & & & & & & & & & & & & & & & & & & & & & & & & & & $               ",
"                & & & & & & # % & & & & & & & & & & & & & & & & & & & & & & & & & & & & & & & & & & & & & & & &                 ",
"                  & & & & & & & & & & & & & & & & & & & & & & & & & & & & & & & & & & & & & & & & & & & & & &                   ",
"                    & & & & & & & & & & & & & & & & & & & & & & & & & & & & & & & & & & & & & & & & & & & &                     ",
"                      & & & & & & & & & & & & & & & & & & & & & & & & & & & & & & & & & & & & & & & & & &                       ",
"                        & & & & & & & & & & & & & & & & & & & & & & & & & & & & & & & & & & & & & & & &                         ",
"                          $ & & & & & & & & & & & & & & & & & & & & & & & & & & & & & & & & & & & & $                           ",
"                            o & & & & & & & & & & & & & & & & & & & & & & & & & & & & & & & & & & o                             ",
"                                $ & & & & & & & & & & & & & & & & & & & & & & & & & & & & & & $                                 ",
"                                    $ & & & & & & & & & & & & & & & & & & & & & & & & & & $                                     ",
"                                        $ & & & & & & & & & & & & & & & & & & & & & & $                                         ",
"                                            O $ & & & & & & & & & & & & & & & & $ O                                             ",
"                                                    o $ & & $ & & $ & & $ o                                                     ",
"                                                                                                                                "
};
