/* XPM */
static char *cbo8j_x738e_0[] = {
/* columns rows colors chars-per-pixel */
"16 16 60 1 ",
"  c None",
". c #F8D917",
"X c #F8D918",
"o c #F8DA18",
"O c #F8DA19",
"+ c #F8DA1A",
"@ c #F8DA1B",
"# c #F8DA1C",
"$ c #F8DA1D",
"% c #F8DA1E",
"& c #F8DB1E",
"* c #F8DB1F",
"= c #F8DB21",
"- c #F8DB22",
"; c #F8DC24",
": c #F8DC26",
"> c #F8DC28",
", c #F8DC29",
"< c #F9DD2D",
"1 c #F9DD2F",
"2 c #F9DE31",
"3 c #F9DF39",
"4 c #F9DF3D",
"5 c #F9E147",
"6 c #FAE24F",
"7 c #FAE352",
"8 c #FAE353",
"9 c #FAE456",
"0 c #FAE458",
"q c #FAE45A",
"w c #FAE561",
"e c #FAE662",
"r c #FBE977",
"t c #FBEA7B",
"y c #FBEA7D",
"u c #FBEB81",
"i c #FBEB83",
"p c #FBEC8C",
"a c #FCED93",
"s c #FCF1A6",
"d c #FCF1A9",
"f c #FCF1AC",
"g c #FCF2AC",
"h c #FDF2AE",
"j c #FDF3B3",
"k c #FDF4BA",
"l c #FDF4BD",
"z c #FDF6C6",
"x c #FEF7CF",
"c c #FEF8D4",
"v c #FEFBE4",
"b c #FEFBE5",
"n c #FEFBE8",
"m c #FEFCEA",
"M c #FEFCEC",
"N c #FFFCEF",
"B c #FFFEF7",
"V c #FFFEF9",
"C c #FFFEFB",
"Z c white",
/* pixels */
"      @@@@      ",
"    @@@@@@@@    ",
"   @@@@@@@@+@   ",
"  @@@@o@%Oo2<+  ",
" @@@@#0ska75=@@ ",
" @@@o6mvzny&+@@ ",
"@@@@.tZp;4-+@@@@",
"@@@@o8MNje=+@@@@",
"@@@@@#9fmBrO@@@@",
"@@@@+-3$wVh#@@@@",
" @@+*ubglCiO@@@ ",
" @@-5qdcxp,+@@@ ",
"  +21X$>:++@@@  ",
"   @+@@++@@@@   ",
"    @@@@@@@@    ",
"      @@@@      "
};
